<?xml version="1.0" encoding="UTF-8" standalone="no"?>
<!-- Created with Inkscape (http://www.inkscape.org/) -->

<svg
   width="160.34869mm"
   height="25.364368mm"
   viewBox="0 0 160.34869 25.364368"
   version="1.1"
   id="svg1"
   xml:space="preserve"
   xmlns:inkscape="http://www.inkscape.org/namespaces/inkscape"
   xmlns:sodipodi="http://sodipodi.sourceforge.net/DTD/sodipodi-0.dtd"
   xmlns="http://www.w3.org/2000/svg"
   xmlns:svg="http://www.w3.org/2000/svg"><sodipodi:namedview
     id="namedview1"
     pagecolor="#505050"
     bordercolor="#ffffff"
     borderopacity="1"
     inkscape:showpageshadow="0"
     inkscape:pageopacity="0"
     inkscape:pagecheckerboard="1"
     inkscape:deskcolor="#505050"
     inkscape:document-units="mm" /><defs
     id="defs1" /><g
     inkscape:label="Layer 1"
     inkscape:groupmode="layer"
     id="layer1"
     transform="translate(-24.82565,-130.8451)"><path
       style="fill:#e8200f;fill-opacity:1"
       d="m 111.37078,151.38425 c -0.51399,-0.32923 -1.00802,-0.97424 -1.26318,-1.64919 -0.8841,-2.33863 0.69084,-4.68525 3.13861,-4.67646 1.39794,0.005 2.24469,0.4461 2.99564,1.56044 2.03738,3.02327 -1.77229,6.75014 -4.87107,4.76521 z"
       id="path1-3"
       sodipodi:nodetypes="sssss" /><path
       style="fill:#000000"
       d="m 54.842184,155.96213 c -3.712444,-0.37035 -6.610136,-3.18938 -7.223693,-7.02759 -0.47794,-2.98983 0.516376,-5.98628 2.615828,-7.88301 1.420613,-1.28344 2.436591,-1.69651 4.687122,-1.90568 3.703216,-0.34417 6.704632,1.30906 8.312758,4.57882 0.798992,1.62456 0.880106,2.0057 0.861131,4.04627 -0.01762,1.89508 -0.133146,2.47193 -0.72758,3.63299 -1.729667,3.37845 -4.657904,4.94403 -8.525566,4.5582 z m 3.532038,-1.73283 c 2.704647,-1.7701 2.790896,-9.42479 0.141074,-12.52051 -1.359024,-1.58771 -3.360897,-1.89338 -5.36738,-0.81954 -0.325094,0.17399 -0.895589,0.98147 -1.267767,1.79442 -0.578291,1.26315 -0.675682,1.84657 -0.66977,4.01219 0.01434,5.25425 2.233667,8.51362 5.497565,8.0739 0.582084,-0.0784 1.331909,-0.32163 1.666278,-0.54046 z m 68.409788,1.82902 c -0.31223,-0.0611 -0.78848,-0.35527 -1.05834,-0.65376 -0.8337,-0.92219 -0.5591,-2.58122 1.2191,-7.36522 0.89247,-2.40109 1.78397,-4.87164 1.98109,-5.4901 l 0.35842,-1.12448 h -1.56161 c -1.48932,0 -1.56161,-0.0306 -1.56161,-0.66146 0,-0.64496 0.048,-0.66146 1.92554,-0.66146 h 1.92553 l 0.88242,-2.38125 0.88243,-2.38125 h 1.38128 c 0.7597,0 1.45032,0.0691 1.53471,0.15344 0.12935,0.12935 -0.59625,2.52389 -1.25635,4.14604 -0.16974,0.41712 0.0129,0.46302 1.84266,0.46302 1.95498,0 2.02792,0.0223 1.94654,0.59531 -0.0787,0.55418 -0.23327,0.60059 -2.2366,0.67167 l -2.15206,0.0763 -1.73625,4.68616 c -2.14486,5.78898 -2.50982,7.08972 -2.10326,7.49627 0.58079,0.58079 1.78001,-0.0533 3.41463,-1.80553 1.5022,-1.61028 2.21545,-1.93995 2.21545,-1.02402 0,0.19042 -0.8632,1.23825 -1.91823,2.32851 -1.51642,1.56706 -2.23898,2.1009 -3.44951,2.54858 -0.8422,0.31146 -1.61611,0.55008 -1.71979,0.53026 -0.10368,-0.0198 -0.44397,-0.086 -0.75619,-0.14707 z m 33.89599,-0.0686 c -0.84526,-0.34262 -1.2691,-1.01998 -1.23335,-1.97109 0.0338,-0.89861 0.31492,-1.71882 2.65735,-7.75287 0.74588,-1.92139 1.28549,-3.67756 1.19913,-3.90261 -0.37799,-0.98503 -2.55994,-0.0411 -4.58419,1.98315 -2.03892,2.03891 -4.87348,6.31808 -5.86805,8.85862 l -0.87801,2.2428 h -1.69197 c -1.48643,0 -1.67559,-0.0563 -1.55704,-0.46302 0.0742,-0.25466 1.17783,-3.30226 2.45249,-6.77245 1.82872,-4.9786 2.24257,-6.35576 1.96208,-6.52911 -0.51674,-0.31937 -1.56603,0.30918 -2.86051,1.71353 -1.07569,1.16698 -1.62728,1.3453 -1.62728,0.52606 0,-0.60374 2.96351,-3.40667 4.27112,-4.03967 1.4792,-0.71607 3.15528,-0.75669 3.75766,-0.0911 0.65122,0.71958 0.54011,1.6554 -0.5007,4.21731 -1.26134,3.10473 -1.28582,3.18407 -0.79454,2.57487 2.28961,-2.83913 3.3718,-4.00593 4.62763,-4.98941 2.60498,-2.04005 4.13447,-2.56279 5.64807,-1.93036 1.73758,0.72601 1.84471,2.98677 0.28718,6.06041 -0.85752,1.69222 -3.00892,7.23375 -3.00892,7.75028 0,0.94129 1.69709,0.0241 3.25887,-1.76125 0.86189,-0.98527 1.3204,-1.31861 1.64331,-1.19469 0.3966,0.15219 0.3643,0.2851 -0.28222,1.16115 -1.5423,2.08985 -3.14083,3.50536 -4.55694,4.03519 -1.55662,0.58241 -1.55989,0.58279 -2.32117,0.27422 z m 13.76752,0.004 c -4.15311,-0.71228 -5.52482,-4.41604 -3.30527,-8.92459 1.13568,-2.30689 4.23262,-5.44978 6.61256,-6.71068 1.53437,-0.81292 1.94315,-0.91152 3.7914,-0.91459 2.00695,-0.003 2.09572,0.0235 2.84427,0.86063 1.48588,1.66166 0.82241,3.84906 -1.677,5.52892 -1.37447,0.92378 -3.50053,1.67935 -6.59614,2.34416 l -2.03435,0.4369 -0.17835,1.42745 c -0.21673,1.73466 -0.0434,2.51029 0.77332,3.45974 0.52242,0.60736 0.83315,0.72438 1.91634,0.72172 1.64798,-0.004 2.98396,-0.64798 4.46843,-2.15372 0.98815,-1.00231 1.24242,-1.14115 1.57874,-0.86203 0.3508,0.29114 0.29864,0.46178 -0.41754,1.36603 -1.1086,1.39973 -2.90442,2.58971 -4.79717,3.1788 -0.86415,0.26895 -1.64986,0.4741 -1.74604,0.45589 -0.0962,-0.0182 -0.65111,-0.1148 -1.2332,-0.21463 z m 3.90573,-9.73164 c 1.60795,-0.7162 3.24868,-2.27615 3.51655,-3.34343 0.0878,-0.34989 0.1206,-0.97797 0.0729,-1.39574 -0.1987,-1.73871 -2.98488,-0.71352 -4.9084,1.80606 -0.98034,1.28414 -2.18986,3.38479 -2.18986,3.80327 0,0.30821 1.94767,-0.1748 3.50885,-0.87016 z m -136.462693,9.09324 c -1.44523,-0.67301 -1.940215,-1.28656 -3.981084,-4.93469 -1.95208,-3.48941 -3.302553,-5.54208 -3.832955,-5.82594 -0.266655,-0.14271 -1.058201,-0.25962 -1.758992,-0.2598 l -1.274164,-3.3e-4 0.07119,4.69668 c 0.06662,4.39499 0.106743,4.72642 0.624624,5.1597 0.304387,0.25466 0.897428,0.46302 1.317869,0.46302 0.591093,0 0.764438,0.12145 0.764438,0.53557 0,0.51925 -0.134864,0.53335 -4.428393,0.46302 -3.825822,-0.0627 -4.439535,-0.13056 -4.510265,-0.49894 -0.05922,-0.30845 0.184233,-0.46958 0.880128,-0.58251 1.796992,-0.29161 1.708531,0.28204 1.708531,-11.07943 0,-6.57335 -0.09881,-10.48838 -0.272934,-10.81372 -0.167191,-0.3124 -0.679727,-0.57503 -1.322917,-0.67788 -0.789914,-0.12632 -1.049983,-0.2906 -1.049983,-0.66325 0,-0.46829 0.299927,-0.49514 5.490104,-0.49144 6.035544,0.004 8.049958,0.30152 10.071117,1.486 3.15543,1.84921 3.84458,6.73807 1.316228,9.33739 -0.89274,0.91779 -3.152845,2.13008 -3.979774,2.13469 -0.338406,0.002 -0.193108,0.24713 0.537473,0.90716 0.550691,0.49752 1.936893,2.49181 3.08045,4.43177 2.405874,4.08139 3.332949,5.17428 4.589135,5.40994 0.977521,0.18338 1.416375,0.81012 0.828092,1.18262 -0.750711,0.47535 -3.490821,0.26166 -4.867921,-0.37963 z m -5.57721,-12.55304 c 1.971497,-0.68398 2.888692,-1.97377 3.016885,-4.24247 0.256633,-4.54177 -1.650553,-6.39543 -6.580102,-6.39543 h -1.574477 v 5.55625 5.55625 l 1.918229,-0.0116 c 1.093318,-0.007 2.47781,-0.20572 3.219465,-0.46302 z M 71.2534,155.69629 c -1.099686,-0.31994 -2.400464,-1.75373 -2.745921,-3.0267 -0.16057,-0.59169 -0.287859,-3.34812 -0.288684,-6.25146 -0.0016,-5.65315 0.0016,-5.64095 -1.548047,-5.95088 -0.580386,-0.11607 -0.834679,-0.31807 -0.834679,-0.66302 0,-0.45358 0.238125,-0.4961 2.778125,-0.4961 h 2.778125 l 0.0063,5.49011 c 0.007,6.04709 0.1725,7.24438 1.134705,8.20659 1.294686,1.29469 4.107219,1.0451 5.893135,-0.52295 l 0.903348,-0.79315 v -5.24925 c 0,-5.1245 -0.01398,-5.25905 -0.588038,-5.66114 -0.323421,-0.22653 -0.859202,-0.41188 -1.190625,-0.41188 -0.426198,0 -0.602587,-0.15489 -0.602587,-0.52916 0,-0.49534 0.176389,-0.52917 2.758925,-0.52917 h 2.758925 l 0.08535,7.1654 c 0.08021,6.73384 0.116278,7.18799 0.598936,7.54062 0.282475,0.20638 0.856752,0.37523 1.276171,0.37523 0.583774,0 0.741719,0.10857 0.673606,0.46302 -0.06863,0.35715 -0.46761,0.50487 -1.744964,0.64606 -0.910794,0.10067 -2.09118,0.25219 -2.623081,0.33673 -1.142183,0.18152 -1.392779,-0.0912 -1.398562,-1.52226 l -0.0041,-1.0025 -0.595312,0.55638 c -0.327422,0.306 -1.32671,0.90595 -2.22064,1.33322 -1.703126,0.81404 -3.564644,0.98965 -5.260467,0.49626 z m 66.56426,-0.42198 c -0.72735,-0.92468 -0.56575,-1.74252 1.11529,-5.6443 2.03538,-4.72422 3.13486,-7.67522 2.96314,-7.95306 -0.22337,-0.36142 -1.11974,0.15084 -2.37368,1.35653 -0.73879,0.71036 -1.16962,0.949 -1.42656,0.79021 -0.30375,-0.18773 -0.27355,-0.35952 0.17268,-0.98247 1.45826,-2.03576 3.86431,-3.33628 5.95017,-3.21619 1.27491,0.0734 1.39581,0.1366 1.46914,0.76797 0.0789,0.67901 -1.77451,6.01512 -3.5387,10.18842 -1.60774,3.80322 -1.05481,4.27527 1.7373,1.48316 1.64454,-1.64454 2.38296,-2.05308 2.38296,-1.31842 0,0.33552 -1.65146,2.41299 -2.75398,3.46439 -1.16573,1.11168 -2.63459,1.76633 -3.96315,1.76633 -0.96407,0 -1.28384,-0.12952 -1.73461,-0.70257 z m -52.092292,-1e-5 c 0.05071,-0.2633 0.475825,-0.55523 1.010183,-0.69369 1.389041,-0.35994 1.937809,-0.86689 4.199859,-3.87984 l 2.074072,-2.76256 -2.765151,-3.66547 c -2.185631,-2.89726 -2.92598,-3.69763 -3.53254,-3.81894 -0.524102,-0.10482 -0.767389,-0.31306 -0.767389,-0.65684 0,-0.47452 0.214731,-0.49915 3.748607,-0.42995 3.799276,0.0744 4.681901,0.3329 3.13297,0.91756 -0.437888,0.16528 -0.79616,0.41385 -0.79616,0.55237 0,0.23465 1.274825,2.18816 2.528759,3.87499 l 0.544383,0.73232 1.069066,-1.41597 c 1.004204,-1.33006 1.943209,-2.90793 1.943209,-3.2653 0,-0.0874 -0.421519,-0.33506 -0.936708,-0.55032 -0.51519,-0.21525 -0.86535,-0.50684 -0.778135,-0.64795 0.08722,-0.14112 1.469963,-0.25658 3.072771,-0.25658 2.591436,0 2.904686,0.0494 2.828246,0.44631 -0.0476,0.24715 -0.47219,0.54639 -0.95153,0.6706 -1.00215,0.25968 -2.410416,1.6835 -4.25843,4.30548 l -1.304275,1.85051 1.235195,1.58907 c 0.679358,0.87399 1.925554,2.55587 2.769314,3.73752 1.490756,2.08773 2.297276,2.74634 3.363076,2.74634 0.34255,0 0.51672,0.1807 0.51672,0.53606 0,0.51812 -0.13506,0.53362 -4.034886,0.46302 -3.321152,-0.0601 -4.0349,-0.14113 -4.0349,-0.45798 0,-0.21172 0.297031,-0.45507 0.660069,-0.54077 0.988729,-0.23341 0.928087,-0.79465 -0.273354,-2.52993 -0.598402,-0.86429 -1.34021,-1.94176 -1.648461,-2.39437 l -0.560458,-0.82293 -1.397922,1.91419 c -2.114583,2.89553 -2.24981,3.59531 -0.748624,3.87401 0.291042,0.054 0.529167,0.27521 0.529167,0.49149 0,0.32266 -0.585606,0.40662 -3.262147,0.46771 -2.96422,0.0677 -3.254151,0.0329 -3.174596,-0.38016 z m 58.889652,-20.19532 c -0.88448,-0.69573 -1.10361,-1.66565 -0.59746,-2.64445 0.51237,-0.99081 1.30946,-1.42286 2.21034,-1.19807 1.08482,0.27068 1.629,0.90952 1.629,1.91236 0,1.23359 -0.36628,1.81743 -1.35682,2.16273 -1.09501,0.38173 -1.1058,0.38039 -1.88506,-0.23257 z"
       id="path1"
       sodipodi:nodetypes="ssssssssssssssscssscssscccscsssccssssssscccssssscssssssssssssssssssccssscssscsscsssssscscssccsssscssssssssssscsscsssssssssccccsscsssssccsscssssscssssssccssccssssssssssssssssscssssssscsssssssscssssssssscssscsssssss" /></g></svg>
